<?xml version="1.0" encoding="utf-8"?>
<!-- Generator: Adobe Illustrator 27.4.0, SVG Export Plug-In . SVG Version: 6.00 Build 0)  -->
<svg version="1.1" id="레이어_1" xmlns="http://www.w3.org/2000/svg" xmlns:xlink="http://www.w3.org/1999/xlink" x="0px"
	 y="0px" viewBox="0 0 288 144" style="enable-background:new 0 0 288 144;" xml:space="preserve">
<g>
	<g>
		<g>
			<g>
				<path d="M49.63,45.87c1.15-1.83,1.6-3.9,1.6-5.96c0-3.21-1.15-6.19-3.44-8.48S42.53,28,39.32,28H22.13v41.94h19.48
					c3.67,0,6.87-1.38,9.4-3.9c2.52-2.52,3.9-5.73,3.9-9.4s-1.37-6.87-3.9-9.4C50.55,46.79,50.09,46.33,49.63,45.87z M30.61,36.94
					h8.48c0.92,0,1.6,0.23,2.29,0.92c0.69,0.69,0.92,1.37,0.92,2.29s-0.23,1.6-0.92,2.29c-0.69,0.69-1.37,0.92-2.29,0.92h-8.48
					V36.94z M44.59,59.85c-0.92,0.92-2.06,1.37-3.21,1.37H30.61v-9.17h10.77c1.37,0,2.29,0.46,3.21,1.37s1.37,2.06,1.37,3.21
					C45.97,57.79,45.51,58.94,44.59,59.85z"/>
			</g>
			<g>
				<path d="M84.24,54.58c1.6,1.37,6.42,6.19,14.67,13.98c0.23,0.23,0.46,0.46,0.69,0.69c0.23,0.23,0.46,0.46,0.69,0.69h12.83
					c-0.92-0.69-2.06-2.06-3.9-3.67c-1.6-1.6-2.98-2.75-3.9-3.67c-2.98-2.75-5.04-4.81-6.42-6.19c0,0-0.23,0-0.23-0.23
					c0,0,0-0.23,0.23-0.23c2.98-0.92,5.5-2.52,7.33-5.04c1.83-2.52,2.75-5.5,2.75-8.71c0-2.29-0.46-4.58-1.6-6.65
					c-0.92-2.06-2.52-3.9-4.35-5.27c-1.83-1.37-3.9-2.06-6.42-2.29c-0.23,0-0.46,0-0.69,0c-0.23,0-0.23,0-0.23,0H75.07v41.94h8.71
					V54.58H84.24z M84.24,36.94h11.46c1.37,0,2.29,0.46,3.21,1.6c0.92,0.92,1.38,2.29,1.6,3.44c0,1.83-0.46,3.21-1.37,4.35
					c-1.15,1.15-2.29,1.83-3.67,1.83H84.24V36.94z"/>
			</g>
			<g>
				<polygon points="244.19,50.23 218.98,28.23 218.98,69.94 227.69,69.94 227.69,47.71 244.19,61.92 260.46,47.71 260.46,69.94 
					269.17,69.94 269.17,28.46 				"/>
			</g>
			<g>
				<path d="M154.59,63.75c1.83-1.83,3.44-4.12,4.35-6.65c1.15-2.52,1.6-5.27,1.6-8.02s-0.46-5.5-1.6-8.25
					c-1.15-2.52-2.52-4.81-4.58-6.65c-1.83-1.83-4.12-3.44-6.65-4.35c-2.52-1.15-5.27-1.6-8.02-1.6c-2.75,0-5.5,0.46-8.25,1.6
					c-2.52,1.15-4.81,2.52-6.65,4.58c-1.83,1.83-3.44,4.12-4.35,6.65c-1.15,2.52-1.6,5.27-1.6,8.02s0.46,5.5,1.6,8.25
					c1.15,2.52,2.52,4.81,4.58,6.65c1.83,1.83,4.12,3.44,6.65,4.35c2.52,1.15,5.27,1.6,8.02,1.6c2.75,0,5.5-0.46,8.25-1.6
					C150.46,67.19,152.76,65.58,154.59,63.75z M131.21,57.56c-2.29-2.29-3.67-5.27-3.67-8.48c0-3.21,1.15-6.19,3.67-8.48
					c2.29-2.29,5.27-3.44,8.48-3.44c1.37,0,2.52,0.23,3.67,0.69c-2.98,0.23-5.5,2.75-5.5,5.73c0,3.21,2.52,5.73,5.73,5.73
					c3.21,0,5.73-2.52,5.73-5.73c0-0.69-0.23-1.15-0.46-1.83c1.83,2.06,2.75,4.58,2.75,7.56c0,3.44-1.15,6.19-3.67,8.48
					c-2.29,2.29-5.27,3.67-8.48,3.67C136.49,61,133.51,59.85,131.21,57.56z"/>
			</g>
			<g>
				<path d="M204.55,34.19c-1.83-1.83-4.12-3.44-6.65-4.35c-2.52-1.15-5.27-1.6-8.02-1.6c-2.75,0-5.5,0.46-8.25,1.6
					c-2.52,1.15-4.81,2.52-6.65,4.58c-1.83,1.83-3.44,4.12-4.35,6.65c-1.15,2.52-1.6,5.27-1.6,8.02c0,2.75,0.46,5.5,1.6,8.25
					c1.15,2.52,2.52,4.81,4.58,6.65c1.83,1.83,4.12,3.44,6.65,4.35c2.52,1.15,5.27,1.6,8.02,1.6c2.75,0,5.5-0.46,8.25-1.6
					c2.52-1.15,4.81-2.52,6.65-4.58c1.83-1.83,3.44-4.12,4.35-6.65c1.15-2.52,1.6-5.27,1.6-8.02c0-2.75-0.46-5.5-1.6-8.25
					C207.98,38.08,206.38,36.02,204.55,34.19z M198.36,57.56c-2.29,2.29-5.27,3.67-8.48,3.67c-3.44,0-6.19-1.15-8.48-3.67
					c-2.29-2.29-3.67-5.27-3.67-8.48c0-3.21,1.15-6.19,3.67-8.48c2.29-2.29,5.27-3.44,8.48-3.44c1.6,0,3.21,0.23,4.81,0.92
					c-2.29,0.92-3.9,2.98-3.9,5.5c0,3.21,2.52,5.73,5.73,5.73c2.29,0,3.9-1.15,5.04-2.98c0.23,0.92,0.46,1.83,0.46,2.98
					C202.03,52.29,200.88,55.04,198.36,57.56z"/>
			</g>
			<circle cx="64.76" cy="65.58" r="4.35"/>
		</g>
		<g>
			<g>
				<path d="M88.59,99.96c-0.69-0.46-1.6-0.69-2.75-1.15c-1.15-0.23-2.06-0.46-2.75-0.69c-0.69-0.23-1.83-0.46-2.98-0.69
					c-0.23,0-0.69-0.23-1.37-0.23c-0.69-0.23-1.15-0.23-1.38-0.23c-0.23,0-0.69-0.23-1.15-0.23c-0.69-0.23-0.92-0.23-1.38-0.23
					c-0.23,0-0.69-0.23-1.15-0.46c-0.46-0.23-0.69-0.23-1.15-0.46c-0.92-0.46-1.6-0.92-2.06-1.6c-0.46-0.69-0.69-1.37-0.69-2.29
					c0-0.69,0.23-1.38,0.46-2.06c0.46-0.69,0.92-1.37,1.6-1.83c1.6-1.6,3.9-2.29,6.65-2.29c0.69,0,1.15,0,1.38,0
					c2.52,0.23,4.58,1.15,5.73,2.52c1.15,1.38,1.83,2.75,1.83,4.35v0.23h3.67v-0.46c0-1.15-0.23-2.06-0.46-3.21
					c-0.69-1.6-1.6-2.98-2.75-4.12c-1.37-1.15-2.75-2.06-4.35-2.52c-1.6-0.46-3.21-0.69-5.04-0.69c-1.6,0-3.44,0.23-5.04,0.92
					c-1.6,0.69-2.98,1.38-4.35,2.52c-1.15,0.92-1.83,2.06-2.52,3.21c-0.69,1.15-0.92,2.29-0.92,3.44c0,3.21,1.6,5.5,4.58,7.1
					c0.69,0.46,1.6,0.69,2.75,1.15c1.15,0.23,1.83,0.46,2.75,0.69c0.69,0.23,1.83,0.46,2.98,0.69c0.23,0,0.23,0,0.69,0.23
					c3.44,0.69,5.73,1.37,6.87,2.06c0.92,0.46,1.6,0.92,2.06,1.6c0.46,0.69,0.69,1.37,0.69,2.29s-0.23,1.83-0.92,2.75
					c-0.69,0.69-1.37,1.38-2.29,1.83c-0.92,0.46-1.83,0.69-2.75,0.92c-0.92,0.23-1.83,0.23-2.75,0.23c-0.46,0-0.92,0-1.83,0
					c-0.23,0-0.46,0-0.92,0c-0.46,0-0.92-0.23-1.6-0.23c-0.69-0.23-1.38-0.46-2.06-0.69c-0.69-0.23-1.37-0.46-2.06-0.92
					c-0.69-0.46-1.37-0.92-1.83-1.38c-0.46-0.46-0.92-1.15-1.15-1.83c-0.23-0.69-0.46-1.38-0.46-2.29v-0.23l-3.67-0.23v0.23
					c0,3.44,1.6,6.19,4.81,8.48c2.06,1.37,4.81,2.29,8.25,2.75c0.92,0,1.6,0,2.06,0c1.15,0,2.29-0.23,3.44-0.46
					c1.15-0.23,2.29-0.69,3.44-1.15c1.15-0.46,2.06-1.15,2.98-1.83c0.92-0.69,1.6-1.6,2.06-2.75c0.46-1.15,0.69-2.29,0.92-3.44
					C93.17,103.85,91.8,101.56,88.59,99.96z"/>
			</g>
			<g>
				<polygon points="102.11,85.52 114.94,85.52 114.94,116.69 118.38,116.69 118.38,85.52 130.99,85.52 130.99,81.85 102.11,81.85 
									"/>
			</g>
			<g>
				<path d="M165.36,102.02c0,2.98-1.15,5.5-3.21,7.79c-2.06,2.06-4.58,3.21-7.79,3.21c-2.98,0-5.5-1.15-7.56-3.21
					c-2.06-2.06-3.21-4.81-3.21-7.79V81.85h-3.67v20.4c0,2.06,0.46,3.9,1.15,5.73c0.69,1.83,1.83,3.21,3.21,4.58
					c1.38,1.37,2.75,2.29,4.58,2.98s3.67,1.15,5.73,1.15c2.52,0,5.04-0.69,7.33-2.06c2.29-1.37,3.9-2.98,5.27-5.27
					c1.38-2.29,1.83-4.58,2.06-7.1v-20.4h-3.67L165.36,102.02z"/>
			</g>
			<g>
				<path d="M198.82,84.83c-2.98-1.83-6.19-2.98-9.62-2.98h-11.23v34.83h11.23c2.29,0,4.58-0.46,6.87-1.37
					c2.06-0.92,3.9-2.06,5.5-3.67c1.6-1.6,2.75-3.44,3.67-5.5s1.38-4.35,1.38-6.65c0-2.29-0.46-4.58-1.38-6.65
					C204.09,89.42,201.8,86.67,198.82,84.83z M201.11,106.14c-1.15,2.06-2.98,3.67-5.04,5.04c-2.06,1.15-4.35,1.83-6.87,1.83h-7.56
					v-27.5h7.56c2.52,0,4.81,0.69,6.87,1.83c2.06,1.15,3.67,2.98,5.04,5.04c1.15,2.06,1.83,4.35,1.83,6.87
					C202.94,101.79,202.48,104.08,201.11,106.14z"/>
			</g>
			<g>
				<rect x="218.07" y="81.85" width="3.67" height="34.83"/>
			</g>
			<g>
				<path d="M262.75,86.9c-1.6-1.6-3.44-2.75-5.5-3.67c-2.06-0.92-4.35-1.38-6.65-1.38c-2.29,0-4.58,0.46-6.87,1.38
					c-2.06,0.92-3.9,2.06-5.5,3.67c-1.6,1.6-2.75,3.44-3.67,5.5c-0.92,2.06-1.37,4.35-1.37,6.65c0,3.21,0.69,6.19,2.29,8.71
					c1.6,2.75,3.67,4.81,6.42,6.42c2.75,1.6,5.5,2.29,8.71,2.29c2.29,0,4.58-0.46,6.87-1.38c2.06-0.92,3.9-2.06,5.5-3.67
					c1.6-1.6,2.75-3.44,3.67-5.5c0.92-2.06,1.38-4.35,1.38-6.65c0-2.29-0.46-4.58-1.38-6.87C265.73,90.33,264.36,88.5,262.75,86.9z
					 M262.53,106.14c-1.15,2.06-2.98,3.67-5.04,5.04c-2.06,1.15-4.35,1.83-6.87,1.83s-4.81-0.69-6.87-1.83
					c-2.06-1.15-3.67-2.98-5.04-5.04c-1.15-2.06-1.83-4.35-1.83-6.87c0-2.52,0.69-4.81,1.83-6.87c1.15-2.06,2.98-3.67,5.04-5.04
					c2.06-1.15,4.35-1.83,6.87-1.83s4.81,0.69,6.87,1.83c2.06,1.15,3.67,2.98,5.04,5.04c1.15,2.06,1.83,4.35,1.83,6.87
					C264.36,101.79,263.67,104.08,262.53,106.14z"/>
			</g>
			<g>
				<g>
					<path d="M41.15,100.64h-5.04V105h5.04c0.69,0,1.15-0.23,1.6-0.69c0.46-0.46,0.69-0.92,0.69-1.6c0-0.69-0.23-1.15-0.69-1.6
						C42.3,100.87,41.84,100.64,41.15,100.64z"/>
				</g>
				<g>
					<path d="M38.4,83c-8.94,0-16.27,7.33-16.27,16.27s7.33,16.27,16.27,16.27c8.94,0,16.27-7.33,16.27-16.27
						C54.67,90.33,47.34,83,38.4,83z M45.74,107.29c-1.15,1.15-2.75,1.83-4.58,1.83h-9.4V88.96h8.25c1.6,0,2.98,0.46,4.12,1.6
						c1.15,1.15,1.6,2.52,1.6,4.12c0,0.92-0.23,2.06-0.69,2.75c0.23,0.23,0.46,0.46,0.69,0.46c1.37,1.38,1.83,2.75,1.83,4.58
						C47.57,104.54,46.88,106.14,45.74,107.29z"/>
				</g>
				<g>
					<path d="M41.15,96.06c0.23-0.23,0.46-0.69,0.46-1.15c0-0.46-0.23-0.69-0.46-1.15c-0.23-0.23-0.69-0.46-1.15-0.46h-4.12v2.98
						h4.12C40.47,96.52,40.92,96.29,41.15,96.06z"/>
				</g>
			</g>
		</g>
	</g>
</g>
</svg>
