<?xml version="1.0" encoding="utf-8"?>
<!-- Generator: Adobe Illustrator 27.4.0, SVG Export Plug-In . SVG Version: 6.00 Build 0)  -->
<svg version="1.1" id="레이어_1" xmlns="http://www.w3.org/2000/svg" xmlns:xlink="http://www.w3.org/1999/xlink" x="0px"
	 y="0px" viewBox="0 0 288 103.66" style="enable-background:new 0 0 288 103.66;" xml:space="preserve">
<g>
	<g>
		<g>
			<g>
				<path d="M32.06,20.84c1.34-2.13,1.87-4.55,1.87-6.95c0-3.74-1.34-7.22-4.01-9.89s-6.13-4-9.87-4H0v48.89h22.71
					c4.28,0,8.01-1.61,10.96-4.55c2.94-2.94,4.55-6.68,4.55-10.96s-1.6-8.01-4.55-10.96C33.13,21.92,32.6,21.38,32.06,20.84z
					 M9.89,10.43h9.89c1.07,0,1.87,0.27,2.67,1.07c0.8,0.8,1.07,1.6,1.07,2.67s-0.27,1.87-1.07,2.67c-0.8,0.8-1.6,1.07-2.67,1.07
					H9.89V10.43z M26.18,37.14c-1.07,1.07-2.4,1.6-3.74,1.6H9.89V28.05h12.56c1.6,0,2.67,0.54,3.74,1.6s1.6,2.4,1.6,3.74
					C27.79,34.74,27.26,36.08,26.18,37.14z"/>
			</g>
			<g>
				<path d="M72.41,31c1.87,1.6,7.48,7.22,17.1,16.3c0.27,0.27,0.54,0.54,0.8,0.8c0.27,0.27,0.54,0.54,0.8,0.8h14.96
					c-1.07-0.8-2.4-2.4-4.55-4.28c-1.87-1.87-3.47-3.21-4.55-4.28c-3.47-3.21-5.88-5.61-7.48-7.22c0,0-0.27,0-0.27-0.27
					c0,0,0-0.27,0.27-0.27c3.47-1.07,6.41-2.94,8.55-5.88c2.13-2.94,3.21-6.41,3.21-10.15c0-2.67-0.54-5.34-1.87-7.75
					c-1.07-2.4-2.94-4.55-5.07-6.14S89.77,0.27,86.83,0c-0.27,0-0.54,0-0.8,0c-0.27,0-0.27,0-0.27,0H61.72v48.89h10.15V31H72.41z
					 M72.41,10.43h13.36c1.6,0,2.67,0.54,3.74,1.87c1.07,1.07,1.61,2.67,1.87,4.01c0,2.13-0.54,3.74-1.6,5.07
					c-1.34,1.34-2.67,2.13-4.28,2.13H72.41V10.43z"/>
			</g>
			<g>
				<polygon points="258.88,25.93 229.49,0.28 229.49,48.91 239.64,48.91 239.64,22.99 258.88,39.56 277.85,22.99 277.85,48.91 
					288,48.91 288,0.55 				"/>
			</g>
			<g>
				<path d="M154.42,41.69c2.13-2.13,4.01-4.8,5.07-7.75c1.34-2.94,1.87-6.14,1.87-9.35s-0.54-6.41-1.87-9.62
					c-1.34-2.94-2.94-5.61-5.34-7.75c-2.13-2.13-4.8-4.01-7.75-5.07c-2.94-1.34-6.14-1.87-9.35-1.87c-3.21,0-6.41,0.54-9.62,1.87
					c-2.94,1.34-5.61,2.94-7.75,5.34c-2.13,2.13-4.01,4.8-5.07,7.75c-1.34,2.94-1.87,6.14-1.87,9.35s0.54,6.41,1.87,9.62
					c1.34,2.94,2.94,5.61,5.34,7.75c2.13,2.13,4.8,4.01,7.75,5.07c2.94,1.34,6.14,1.87,9.35,1.87c3.21,0,6.41-0.54,9.62-1.87
					C149.61,45.7,152.29,43.82,154.42,41.69z M127.17,34.47c-2.67-2.67-4.28-6.14-4.28-9.89s1.34-7.22,4.28-9.89
					c2.67-2.67,6.14-4.01,9.89-4.01c1.6,0,2.94,0.27,4.28,0.8c-3.47,0.27-6.41,3.21-6.41,6.68c0,3.74,2.94,6.68,6.68,6.68
					c3.74,0,6.68-2.94,6.68-6.68c0-0.8-0.27-1.34-0.54-2.13c2.13,2.4,3.21,5.34,3.21,8.81c0,4.01-1.34,7.22-4.28,9.89
					c-2.67,2.67-6.14,4.28-9.89,4.28C133.32,38.48,129.85,37.14,127.17,34.47z"/>
			</g>
			<g>
				<path d="M212.67,7.23c-2.13-2.13-4.8-4.01-7.75-5.07c-2.94-1.34-6.14-1.87-9.35-1.87c-3.21,0-6.41,0.54-9.62,1.87
					c-2.94,1.34-5.61,2.94-7.75,5.34c-2.13,2.13-4.01,4.8-5.07,7.75c-1.34,2.94-1.87,6.14-1.87,9.35s0.54,6.41,1.87,9.62
					c1.34,2.94,2.94,5.61,5.34,7.75c2.13,2.13,4.8,4.01,7.75,5.07c2.94,1.34,6.14,1.87,9.35,1.87c3.21,0,6.41-0.54,9.62-1.87
					c2.94-1.34,5.61-2.94,7.75-5.34c2.13-2.13,4.01-4.8,5.07-7.75c1.34-2.94,1.87-6.14,1.87-9.35s-0.54-6.41-1.87-9.62
					C216.66,11.76,214.8,9.36,212.67,7.23z M205.45,34.47c-2.67,2.67-6.14,4.28-9.89,4.28c-4.01,0-7.22-1.34-9.89-4.28
					c-2.67-2.67-4.28-6.14-4.28-9.89s1.34-7.22,4.28-9.89c2.67-2.67,6.14-4.01,9.89-4.01c1.87,0,3.74,0.27,5.61,1.07
					c-2.67,1.07-4.55,3.47-4.55,6.41c0,3.74,2.94,6.68,6.68,6.68c2.67,0,4.55-1.34,5.88-3.47c0.27,1.07,0.54,2.13,0.54,3.47
					C209.73,28.33,208.39,31.53,205.45,34.47z"/>
			</g>
			<circle cx="49.7" cy="43.82" r="5.07"/>
		</g>
		<g>
			<g>
				<path d="M77.48,83.9c-0.8-0.54-1.87-0.8-3.21-1.34c-1.34-0.27-2.4-0.54-3.21-0.8c-0.8-0.27-2.13-0.54-3.47-0.8
					c-0.27,0-0.8-0.27-1.6-0.27c-0.8-0.27-1.34-0.27-1.61-0.27c-0.27,0-0.8-0.27-1.34-0.27c-0.8-0.27-1.07-0.27-1.61-0.27
					c-0.27,0-0.8-0.27-1.34-0.54c-0.54-0.27-0.8-0.27-1.34-0.54c-1.07-0.54-1.87-1.07-2.4-1.87c-0.54-0.8-0.8-1.6-0.8-2.67
					c0-0.8,0.27-1.61,0.54-2.4c0.54-0.8,1.07-1.6,1.87-2.13c1.87-1.87,4.55-2.67,7.75-2.67c0.8,0,1.34,0,1.61,0
					c2.94,0.27,5.34,1.34,6.68,2.94c1.34,1.61,2.13,3.21,2.13,5.07v0.27h4.28v-0.54c0-1.34-0.27-2.4-0.54-3.74
					c-0.8-1.87-1.87-3.47-3.21-4.8c-1.6-1.34-3.21-2.4-5.07-2.94c-1.87-0.54-3.74-0.8-5.88-0.8c-1.87,0-4.01,0.27-5.88,1.07
					c-1.87,0.8-3.47,1.61-5.07,2.94c-1.34,1.07-2.13,2.4-2.94,3.74c-0.8,1.34-1.07,2.67-1.07,4.01c0,3.74,1.87,6.41,5.34,8.28
					c0.8,0.54,1.87,0.8,3.21,1.34c1.34,0.27,2.13,0.54,3.21,0.8c0.8,0.27,2.13,0.54,3.47,0.8c0.27,0,0.27,0,0.8,0.27
					c4.01,0.8,6.68,1.6,8.01,2.4c1.07,0.54,1.87,1.07,2.4,1.87c0.54,0.8,0.8,1.6,0.8,2.67c0,1.07-0.27,2.13-1.07,3.21
					c-0.8,0.8-1.6,1.61-2.67,2.13c-1.07,0.54-2.13,0.8-3.21,1.07c-1.07,0.27-2.13,0.27-3.21,0.27c-0.54,0-1.07,0-2.13,0
					c-0.27,0-0.54,0-1.07,0s-1.07-0.27-1.87-0.27c-0.8-0.27-1.61-0.54-2.4-0.8c-0.8-0.27-1.6-0.54-2.4-1.07
					c-0.8-0.54-1.6-1.07-2.13-1.61c-0.54-0.54-1.07-1.34-1.34-2.13c-0.27-0.8-0.54-1.61-0.54-2.67v-0.27l-4.28-0.27v0.27
					c0,4.01,1.87,7.22,5.61,9.89c2.4,1.6,5.61,2.67,9.62,3.21c1.07,0,1.87,0,2.4,0c1.34,0,2.67-0.27,4.01-0.54
					c1.34-0.27,2.67-0.8,4.01-1.34s2.4-1.34,3.47-2.13c1.07-0.8,1.87-1.87,2.4-3.21c0.54-1.34,0.8-2.67,1.07-4.01
					C82.82,88.44,81.22,85.77,77.48,83.9z"/>
			</g>
			<g>
				<polygon points="93.24,67.07 108.2,67.07 108.2,103.41 112.21,103.41 112.21,67.07 126.91,67.07 126.91,62.79 93.24,62.79 				
					"/>
			</g>
			<g>
				<path d="M166.98,86.3c0,3.47-1.34,6.41-3.74,9.08c-2.4,2.4-5.34,3.74-9.08,3.74c-3.47,0-6.41-1.34-8.81-3.74
					s-3.74-5.61-3.74-9.08V62.79h-4.28v23.78c0,2.4,0.54,4.55,1.34,6.68c0.8,2.13,2.13,3.74,3.74,5.34c1.61,1.6,3.21,2.67,5.34,3.47
					c2.13,0.8,4.28,1.34,6.68,1.34c2.94,0,5.88-0.8,8.55-2.4c2.67-1.6,4.55-3.47,6.14-6.14c1.61-2.67,2.13-5.34,2.4-8.28V62.8h-4.28
					L166.98,86.3z"/>
			</g>
			<g>
				<path d="M205.99,66.26c-3.47-2.13-7.22-3.47-11.22-3.47h-13.09v40.6h13.09c2.67,0,5.34-0.54,8.01-1.6
					c2.4-1.07,4.55-2.4,6.41-4.28c1.87-1.87,3.21-4.01,4.28-6.41s1.61-5.07,1.61-7.75c0-2.67-0.54-5.34-1.61-7.75
					C212.13,71.62,209.46,68.41,205.99,66.26z M208.66,91.11c-1.34,2.4-3.47,4.28-5.88,5.88c-2.4,1.34-5.07,2.13-8.01,2.13h-8.81
					V67.06h8.81c2.94,0,5.61,0.8,8.01,2.13c2.4,1.34,4.28,3.47,5.88,5.88c1.34,2.4,2.13,5.07,2.13,8.01
					C210.79,86.04,210.25,88.71,208.66,91.11z"/>
			</g>
			<g>
				<rect x="228.43" y="62.79" width="4.28" height="40.6"/>
			</g>
			<g>
				<path d="M280.52,68.68c-1.87-1.87-4.01-3.21-6.41-4.28c-2.4-1.07-5.07-1.61-7.75-1.61c-2.67,0-5.34,0.54-8.01,1.61
					c-2.4,1.07-4.55,2.4-6.41,4.28c-1.87,1.87-3.21,4.01-4.28,6.41c-1.07,2.4-1.6,5.07-1.6,7.75c0,3.74,0.8,7.22,2.67,10.15
					c1.87,3.21,4.28,5.61,7.48,7.48c3.21,1.87,6.41,2.67,10.15,2.67c2.67,0,5.34-0.54,8.01-1.61c2.4-1.07,4.55-2.4,6.41-4.28
					c1.87-1.87,3.21-4.01,4.28-6.41c1.07-2.4,1.61-5.07,1.61-7.75c0-2.67-0.54-5.34-1.61-8.01
					C283.99,72.68,282.39,70.54,280.52,68.68z M280.26,91.11c-1.34,2.4-3.47,4.28-5.88,5.88c-2.4,1.34-5.07,2.13-8.01,2.13
					s-5.61-0.8-8.01-2.13c-2.4-1.34-4.28-3.47-5.88-5.88c-1.34-2.4-2.13-5.07-2.13-8.01c0-2.94,0.8-5.61,2.13-8.01
					c1.34-2.4,3.47-4.28,5.88-5.88c2.4-1.34,5.07-2.13,8.01-2.13s5.61,0.8,8.01,2.13c2.4,1.34,4.28,3.47,5.88,5.88
					c1.34,2.4,2.13,5.07,2.13,8.01C282.39,86.04,281.59,88.71,280.26,91.11z"/>
			</g>
			<g>
				<g>
					<path d="M22.17,84.7H16.3v5.08h5.88c0.8,0,1.34-0.27,1.87-0.8c0.54-0.54,0.8-1.07,0.8-1.87c0-0.8-0.27-1.34-0.8-1.87
						C23.51,84.96,22.98,84.7,22.17,84.7z"/>
				</g>
				<g>
					<path d="M18.97,64.13C8.55,64.13,0,72.68,0,83.1s8.55,18.97,18.97,18.97s18.97-8.55,18.97-18.97
						C37.94,72.68,29.39,64.13,18.97,64.13z M27.52,92.45c-1.34,1.34-3.21,2.13-5.34,2.13H11.23v-23.5h9.62
						c1.87,0,3.47,0.54,4.8,1.87c1.34,1.34,1.87,2.94,1.87,4.8c0,1.07-0.27,2.4-0.8,3.21c0.27,0.27,0.54,0.54,0.8,0.54
						c1.6,1.61,2.13,3.21,2.13,5.34C29.66,89.24,28.85,91.11,27.52,92.45z"/>
				</g>
				<g>
					<path d="M22.17,79.36c0.27-0.27,0.54-0.8,0.54-1.34c0-0.54-0.27-0.8-0.54-1.34c-0.27-0.27-0.8-0.54-1.34-0.54h-4.8v3.47h4.8
						C21.38,79.89,21.91,79.62,22.17,79.36z"/>
				</g>
			</g>
		</g>
	</g>
</g>
</svg>
