<?xml version="1.0" encoding="utf-8"?>
<!-- Generator: Adobe Illustrator 27.4.0, SVG Export Plug-In . SVG Version: 6.00 Build 0)  -->
<svg version="1.1" id="레이어_1" xmlns="http://www.w3.org/2000/svg" xmlns:xlink="http://www.w3.org/1999/xlink" x="0px"
	 y="0px" viewBox="0 0 288 144" style="enable-background:new 0 0 288 144;" xml:space="preserve">
<g transform="translate(0.000000,1180.000000) scale(0.100000,-0.100000)">
	<path d="M366.42,11559.77c-0.9-53.09-1.58-118.99-1.58-146.43v-50.16h57.35h57.35v34.86v34.86h51.29l51.06-0.23l26.99-35.76
		l26.99-35.99h60.28c46.78,0,59.83,0.68,58.71,2.7c-0.9,1.58-14.85,19.79-30.81,40.71c-15.97,20.69-28.79,38.24-28.34,38.47
		c0.45,0.45,4.28,2.48,8.54,4.73c10.8,5.4,30.14,24.29,38.24,36.89c21.59,33.96,21.59,83.45,0,117.41
		c-8.99,14.17-28.12,31.71-41.62,38.69c-25.42,12.82-23.17,12.6-184.22,14.4l-148.91,1.35L366.42,11559.77z M630.72,11565.17
		c8.32-3.15,13.72-12.15,13.72-22.94c0-7.42-1.35-10.12-8.09-16.42l-8.32-7.42h-67.25c-36.89,0-70.4,0.68-74.23,1.35l-6.97,1.58
		v22.94c0,12.6,0.68,23.62,1.58,24.52C483.61,11571.25,623.74,11567.87,630.72,11565.17z"/>
	<path d="M768.59,11588.78c-2.03-78.27-0.68-121.01,4.5-137.88c6.52-21.14,16.65-37.56,32.84-52.86
		c24.29-22.72,54.65-35.31,104.36-42.73c26.32-3.83,89.3-4.5,115.16-0.9c75.13,10.12,119.66,40.72,136.99,93.57
		c2.93,8.54,4.05,30.13,5.85,104.81c1.35,51.74,2.03,94.47,1.35,94.92c-0.45,0.45-26.32,1.58-57.13,2.48l-56.45,1.58l-1.58-82.1
		c-0.68-44.98-2.48-85.47-3.6-89.75c-6.97-25.19-39.82-37.79-92.22-35.09c-29.47,1.35-44.76,5.39-57.8,14.85
		c-17.55,12.6-17.55,12.82-17.55,107.29v83.45l-21.37,1.58c-11.7,0.68-37.11,1.35-56.45,1.35h-35.31L768.59,11588.78z"/>
	<path d="M1852.3,11648.62c-28.12-2.7-60.73-11.47-82.77-22.04c-34.64-16.87-56.9-45.88-65.23-84.57
		c-4.95-23.84-4.5-72.65,1.13-94.24c13.95-54.88,54.65-86.15,128.66-98.97c48.13-8.32,115.83-6.52,158.35,4.28
		c30.81,7.87,51.96,18.89,70.85,36.44c27.44,25.87,37.79,55.55,38.01,108.19c0,57.36-16.42,94.24-53.31,118.76
		C2006.37,11644.11,1932.6,11656.03,1852.3,11648.62z M1928.55,11555.5c26.99-2.48,46.78-14.4,54.43-33.06
		c2.25-5.18,3.6-15.3,3.6-26.09c0-42.96-22.94-59.16-84.35-59.16c-43.41,0-66.57,7.42-79.17,25.64c-5.63,8.09-6.29,11.25-6.97,31.26
		c-0.68,19.12-0.23,23.39,4.05,32.16c8.99,18.45,26.09,27.22,58.48,30.14C1897.28,11558.2,1902.69,11557.97,1928.55,11555.5z"/>
	<path d="M1178.41,11611.28c-0.9-20.47-1.58-86.37-1.58-146.21v-108.64h56.23c43.41,0,56.23,0.68,56.45,2.93
		c0.23,1.35,1.13,35.99,1.8,76.7l1.35,74.23l56.23-78.05l56-78.05h28.57h28.81l56.9,76.48l56.9,76.48l0.68-76.03l0.45-76.25
		l15.3-1.35c8.32-0.9,33.51-1.58,56-1.58c40.72,0,41.17,0,42.28,5.18c0.68,2.7,1.35,68.38,1.58,145.98l0.68,140.8l-33.74,1.58
		c-18.44,0.68-50.84,1.12-71.75,0.68l-38.01-0.68l-56.45-71.3c-31.04-39.14-57.13-71.3-58.03-71.3
		c-0.9-0.23-26.77,32.61-57.35,72.65l-55.78,73.1h-71.08l-71.08,0.23L1178.41,11611.28z"/>
	<path d="M2111.42,11638.95c-0.45-1.35-1.35-67.48-1.8-146.88l-1.13-144.63h57.13h57.13v35.99v35.99h47.01
		c25.87,0,49.49-0.9,52.41-2.03c2.93-1.12,17.32-17.77,31.94-37.11l26.77-35.09h60.51h60.73l-4.28,5.39
		c-2.25,3.15-16.42,21.82-31.49,41.62l-27.44,35.76l11.7,6.74c6.52,3.83,17.1,12.37,23.62,19.57
		c40.27,44.08,38.69,109.54-3.83,152.05c-16.87,16.65-33.29,25.42-56,30.14C2394.38,11640.52,2112.54,11642.77,2111.42,11638.95z
		 M2374.59,11550.77c15.75-7.42,18.66-29.02,5.4-40.04l-6.97-5.85h-74h-74v24.74v24.74h71.08
		C2356.14,11554.37,2368.28,11553.92,2374.59,11550.77z"/>
	<path d="M462.02,11295.71c-44.98-3.83-77.83-15.97-94.92-35.31c-14.4-16.42-19.57-40.94-12.15-58.71
		c12.15-29.25,49.49-42.06,140.35-47.68c43.18-2.7,61.86-5.4,66.57-9.22c8.09-6.75-0.68-17.77-17.99-22.72
		c-4.95-1.58-21.82-2.7-37.34-2.7c-32.39-0.22-47.01,3.6-57.35,14.4l-6.52,6.74h-45.88H350.9l1.58-8.32
		c5.85-32.39,28.79-53.09,70.4-63.88c34.41-8.77,122.36-9.45,160.15-0.9c37.79,8.55,63.66,27.22,70.85,51.29
		c11.02,37.34-7.42,62.53-54.65,74.45c-20.02,5.18-42.73,7.87-92.89,11.25c-49.71,3.6-62.76,6.52-62.76,14.62
		c0,5.4,8.54,12.37,19.79,16.42c11.02,3.83,63.66,3.83,76.48,0c5.4-1.58,13.5-6.53,18.21-10.8l8.54-7.64h45.66h45.43l-1.58,8.54
		c-4.5,23.84-21.59,45.43-44.53,55.33C580.78,11294.58,520.95,11300.43,462.02,11295.71z"/>
	<path d="M665.35,11285.35c-0.68-2.03-1.35-52.64-1.35-112.47v-108.87h43.86h43.86v26.99v26.77l76.03,0.68l75.8,0.68l15.07,7.42
		c30.81,15.07,47.46,42.06,47.68,76.93c0.23,16.87-0.68,20.92-6.97,34.19c-12.37,26.32-34.64,43.63-62.53,48.81
		c-8.32,1.58-53.09,2.48-121.69,2.48C678.4,11288.96,666.48,11288.51,665.35,11285.35z M871.39,11217.65
		c11.02-9.89,9.44-24.74-3.15-31.26c-5.85-2.93-14.62-3.15-61.63-1.8l-54.88,1.58v19.12v19.12l57.58-1.35
		C860.59,11221.93,867.34,11221.26,871.39,11217.65z"/>
	<path d="M974.4,11221.93c0-35.76-0.68-86.37-1.58-112.47l-1.35-47.68h44.08h44.31v9.67c0,5.4,0.68,17.55,1.35,26.99l1.58,17.32
		h38.46h38.46l21.14-28.12l21.14-28.12h46.78h47.01l-23.62,30.59c-13.05,16.87-23.62,31.49-23.62,32.16c0,0.68,4.73,4.28,10.35,7.87
		c13.27,8.32,26.32,24.97,32.39,41.17c7.19,19.11,5.63,48.36-3.38,66.57c-8.32,16.87-27.67,34.86-45.21,42.06l-13.27,5.62
		l-117.41,0.68l-117.64,0.68v-65.02H974.4z M1136.58,11219.91c38.92-1.35,41.39-1.8,46.33-6.52c7.87-7.87,6.97-19.12-1.8-26.54
		c-6.52-5.62-8.32-5.85-32.16-5.85c-13.95,0-39.14,0.68-56,1.58l-30.81,1.35v18.89v18.66h16.42
		C1087.77,11221.48,1113.64,11220.81,1136.58,11219.91z"/>
	<path d="M1284.13,11245.77c-0.9-21.37-1.58-71.98-1.58-112.24v-73.33l81.42-1.35c44.76-0.9,103.91-1.58,131.58-1.58h50.16v29.25
		v29.24h-87.73h-87.73v14.62v14.85l88.4-0.23l88.18-0.23l0.68,25.87l0.68,26.09h-87.5c-48.13,0-87.95,0.45-88.4,0.9
		c-0.45,0.45-0.45,7.19-0.23,14.62l0.9,13.72h87.5h87.5v27.67v27.89l-69.05,1.35c-38.24,0.9-97.17,1.58-131.36,1.58h-62.08
		L1284.13,11245.77z"/>
	<path d="M1663.36,11258.14c-29.92-53.98-106.61-194.57-107.97-197.49c-0.9-2.93,5.85-3.38,48.13-3.38h49.26l8.99,18.66l8.77,18.45
		h15.3c8.32,0,33.74-0.45,56.45-0.68l41.17-0.45l8.54-19.11l8.54-19.12h49.26h49.04l-5.85,11.7
		c-7.42,14.62-111.34,212.1-111.79,212.33c-0.23,0.23-23.84,1.13-52.41,2.03l-51.96,1.58L1663.36,11258.14z M1743.43,11181.67
		c7.42-16.87,13.27-31.04,12.82-31.49c-0.45-0.45-13.95-0.45-30.14-0.22l-29.25,0.68l14.85,31.04c8.09,16.87,15.3,30.81,16.2,30.81
		C1728.8,11212.49,1735.79,11198.75,1743.43,11181.67z"/>
	<path d="M2332.07,11279.96c-60.06-5.85-96.49-25.19-105.71-56.45c-11.25-37.56,5.63-61.18,53.09-73.78
		c22.04-6.07,42.96-8.77,88.4-11.47c61.18-3.83,72.2-6.97,66.8-18.89c-1.35-3.15-5.4-7.19-9.22-8.99
		c-16.87-8.77-66.13-10.12-88.18-2.48c-5.4,2.03-12.82,6.53-16.65,10.12l-6.74,6.52l-45.66,0.68l-45.88,0.68l1.58-8.99
		c4.95-31.94,27.67-52.86,70.4-64.78c15.97-4.28,22.72-4.73,81.42-4.73c71.08,0,83.45,1.8,114.03,16.65
		c40.49,19.79,51.74,68.15,22.04,94.24c-20.47,17.77-49.71,24.52-134.51,30.59c-49.49,3.6-62.31,6.53-62.31,14.4
		c0,5.4,8.54,12.37,19.79,16.42c11.25,3.83,63.88,3.83,76.48,0c5.4-1.58,13.5-6.52,18.22-10.8l8.54-7.64h45.66h45.43l-1.58,8.54
		c-6.74,37.34-36.89,60.06-89.98,67.7C2414.62,11280.86,2355.24,11282.21,2332.07,11279.96z"/>
	<path d="M1907.41,11168.17c-0.45-61.63-0.45-112.47,0-113.14c0.45-0.68,49.26-1.35,108.42-1.8c116.06-0.9,119.44-0.68,142.6,11.25
		c11.7,5.85,31.04,24.29,39.59,37.56c12.37,19.34,16.42,34.64,16.65,62.08c0.23,37.11-9.44,61.18-34.19,84.8
		c-28.57,27.44-32.61,28.12-165.09,29.91l-107.07,1.35L1907.41,11168.17z M2109.17,11201.46c19.57-11.25,24.29-43.18,9.67-63.88
		c-8.54-12.15-12.6-12.82-70.4-12.82h-52.86v41.83v42.07l53.54-1.8C2093.42,11205.73,2103.54,11204.61,2109.17,11201.46z"/>
	<path d="M539.17,10996.77c-2.48-3.6-14.62-18.45-26.99-33.06c-12.37-14.62-38.69-45.88-58.48-69.5
		c-19.79-23.62-50.84-60.73-69.28-82.55l-33.06-39.59l0.45-63.21l0.68-62.98l15.07,18.44c8.09,10.12,29.92,36.21,48.36,58.03
		c89.75,106.61,123.94,147.33,130.01,154.97c3.83,4.73,28.34,33.96,54.65,65.01c26.09,31.04,47.68,57.35,47.68,58.7
		s-17.99,2.25-52.19,2.25h-52.41L539.17,10996.77z"/>
	<path d="M937.29,10992.95c-3.6-3.6-29.25-33.51-56.45-66.35c-27.44-32.61-56.23-67.02-64.11-76.25
		c-14.62-17.32-67.25-80.07-101.22-120.56c-10.35-12.37-39.59-47.24-65.01-77.61c-25.42-30.14-54.88-65.01-65.23-77.38
		c-10.35-12.37-24.07-28.57-30.81-36.21c-6.52-7.64-11.92-14.85-11.92-16.42c0-1.58,8.32-2.48,26.54-2.48
		c14.85,0,37.34-0.68,50.16-1.35l23.39-1.58l19.11,22.49c10.57,12.15,41.84,49.49,69.73,82.77
		c27.89,33.06,75.35,89.97,105.71,125.96c30.36,35.99,85.92,102.34,123.71,147.33c37.79,44.98,72.65,86.15,77.38,91.54
		c4.73,5.4,8.32,10.12,7.87,10.57c-0.45,0.68-23.62,1.35-51.51,1.8l-50.61,0.68L937.29,10992.95z"/>
	<path d="M1311.35,10963.48c-15.07-17.99-35.76-42.73-45.66-54.65s-25.19-30.37-33.96-40.72s-30.59-36.21-48.36-57.35
		c-17.77-21.14-52.64-62.53-77.38-91.99c-47.68-56.68-119.21-141.93-147.33-175.44c-9.22-11.25-17.77-20.92-18.89-21.59
		c-1.13-0.9-1.13-2.7-0.45-4.05c1.13-1.8,17.55-2.48,52.64-2.48c46.33,0,51.29,0.45,53.54,4.05c2.25,3.6,46.11,55.78,161.28,192.54
		c24.97,29.7,59.16,70.18,75.8,90.2c16.65,20.02,43.41,51.96,59.61,71.08c15.97,19.12,39.59,47.23,52.64,62.76
		c12.82,15.52,28.79,34.19,35.54,41.83c6.52,7.64,11.92,14.85,11.92,16.42c0,1.8-14.4,2.48-51.51,2.48h-51.51L1311.35,10963.48z"/>
	<path d="M1690.58,10938.74c-25.87-30.81-59.16-70.4-74.23-88.4c-15.07-17.99-33.74-40.26-41.62-49.49
		c-7.87-9.22-34.64-41.17-59.38-70.85c-57.35-68.38-140.13-166.67-163.74-194.57l-18.21-21.37l30.36-1.35
		c16.65-0.9,40.04-1.58,51.96-1.8l21.59-0.23l57.13,67.7c31.26,37.34,87.73,104.36,125.06,149.13
		c37.56,44.53,83.22,98.75,101.22,120.34c18.22,21.37,36.21,42.74,39.82,47.46c3.83,4.73,23.17,27.89,43.41,51.51
		c20.02,23.84,35.99,44.08,35.31,45.21c-0.9,1.35-22.04,2.25-51.74,2.25h-50.16L1690.58,10938.74z"/>
	<path d="M2115.69,10968.89c-16.2-19.11-94.24-112.24-192.76-229.65c-20.92-24.97-44.31-52.86-52.19-62.08
		c-29.7-35.31-92.22-109.77-106.61-127.08c-8.09-9.67-18.66-22.04-23.39-27.44c-4.73-5.18-8.09-10.57-7.19-11.92
		c0.9-1.35,19.11-2.25,51.74-2.25h50.16l34.41,41.17c18.89,22.49,35.09,41.38,35.76,42.06c0.67,0.68,10.35,12.15,21.37,25.42
		c24.74,29.91,31.04,37.34,66.35,79.17c15.52,18.44,34.19,40.71,41.62,49.71c15.97,19.12,60.28,71.98,98.75,117.64
		c14.85,17.77,36.66,43.63,48.36,57.35c11.47,13.72,28.34,33.74,37.56,44.53c9.22,10.57,16.65,20.47,16.65,21.82
		c0,1.8-15.52,2.48-51.29,2.48h-51.29L2115.69,10968.89z"/>
	<path d="M2489.07,10937.62c-42.06-50.61-91.32-109.09-156.33-186.24c-25.42-30.37-59.83-71.3-76.48-91.32
		c-75.58-90.42-113.59-135.41-120.79-143.05c-7.19-7.42-7.42-8.32-3.6-10.35c2.48-1.12,25.64-2.25,51.74-2.48l47.46-0.45
		l34.64,40.94c19.11,22.49,37.79,44.53,41.39,49.26c3.83,4.73,17.32,20.92,30.36,36.21c12.82,15.3,50.16,59.83,83,98.75
		c32.61,38.91,64.11,76.25,69.73,83c5.62,6.74,16.2,19.12,23.39,27.89l12.82,15.75v62.53c0,34.64-0.23,62.76-0.68,62.76
		C2525.51,10980.81,2508.86,10961.23,2489.07,10937.62z"/>
</g>
</svg>
