<?xml version="1.0" encoding="utf-8"?>
<!-- Generator: Adobe Illustrator 25.2.3, SVG Export Plug-In . SVG Version: 6.00 Build 0)  -->
<svg version="1.1" id="レイヤー_1" xmlns="http://www.w3.org/2000/svg" xmlns:xlink="http://www.w3.org/1999/xlink" x="0px"
	 y="0px" viewBox="0 0 650 153.3" style="enable-background:new 0 0 650 153.3;" xml:space="preserve">
<style type="text/css">
	.st0{fill:#FFFFFF;}
</style>
<g id="mashgroup">
	<polyline points="292.7,67.2 355.4,31.1 325.4,13.7 327,10.8 360.4,30.1 360.4,65.7 420.4,31.1 390.4,13.7 392.1,10.8 425.4,30.1 
		425.4,65.7 485.4,31.1 455.4,13.7 457.1,10.8 490.5,30.1 490.5,68.6 487.1,68.6 487.1,34 422.1,71.5 422.1,34 357,71.5 357,34 
		294.3,70.1 	"/>
	<path d="M35.3,79.6c11.5,0,22.5,5.8,27.9,14.7l2.9-1.8c-6-9.9-18.1-16.3-30.8-16.3C15.5,76.2,0,91.6,0,111.4
		c0,19.7,15.5,35.2,35.3,35.2c18.6,0,34.1-12.9,36.1-30l0.2-1.9H36.2v3.4h31.5c-2.7,14.2-16.6,25.1-32.5,25.1
		c-18.2,0-31.9-13.7-31.9-31.8C3.4,93.2,17.1,79.6,35.3,79.6"/>
	<path d="M271.8,79.7l-0.1,0c-3.1-1.1-6.7-1.6-10.9-1.6h-17.9v66.6h3.4V116h14.6c4.2,0,7.8-0.5,10.9-1.6l0.1,0
		c7.3-3.1,11.2-9.1,11.3-17.4C283,88.8,279.1,82.8,271.8,79.7 M270.5,111.2c-2.7,0.9-6,1.4-9.7,1.4h-14.6V81.4h14.6
		c3.8,0,7.1,0.5,9.7,1.4c6,2.6,9.1,7.4,9.2,14.2C279.6,103.8,276.5,108.6,270.5,111.2"/>
	<path d="M152.8,146.5c19.4,0,35.2-15.8,35.2-35.2c0-19.4-15.8-35.2-35.2-35.2s-35.2,15.8-35.2,35.2
		C117.6,130.7,133.4,146.5,152.8,146.5 M152.8,79.6c17.5,0,31.8,14.3,31.8,31.8c0,17.5-14.3,31.8-31.8,31.8S121,128.9,121,111.4
		C121,93.8,135.2,79.6,152.8,79.6"/>
	<path d="M97,115.9c2.9-0.2,5.4-0.7,7.7-1.5l0.1,0c7.3-3.1,11.2-9.1,11.3-17.4c-0.1-8.2-4-14.2-11.3-17.3l-0.1,0
		c-3.1-1.1-6.7-1.6-10.9-1.6H75.8v66.5h3.4v-28.5h13.7l20.3,27.9h4.2L97,115.9z M79.2,81.5h14.6c3.8,0,7.1,0.5,9.8,1.4
		c6,2.6,9.1,7.4,9.2,14.2c-0.1,6.8-3.2,11.6-9.2,14.2c-2.7,0.9-6,1.4-9.8,1.4H79.2V81.5z"/>
	<path d="M232.8,121c0.1,7-0.7,14.1-7.1,18.6c-3.2,2.3-7.1,3.6-11.1,3.6c-3.9,0-7.9-1.3-11-3.6c-6.4-4.5-7.2-11.6-7.1-18.6V79h-3.4
		v41.9c-0.1,4.9-0.2,15.2,8.5,21.3c3.7,2.7,8.3,4.3,13,4.3c4.7,0,9.3-1.5,13-4.2c8.7-6.1,8.6-16.4,8.5-21.3V79h-3.4V121z"/>
	<polygon points="359.5,95.1 392.1,76.3 424.6,95.1 457.1,76.3 490.5,95.5 488.8,98.4 458.8,81.1 458.8,153.3 455.4,153.3 
		455.4,81.1 424.6,98.9 393.7,81.1 393.7,153.3 390.4,153.3 390.4,81.1 359.5,98.9 328.7,81.1 328.7,153.3 325.4,153.3 325.3,81.1 
		295.3,98.4 293.7,95.5 327,76.3 	"/>
	<path d="M3.4,12.2l14.7,24.7l8.2,14.2L3.4,64.4V12.2z M57.8,36.5l52-30.3l0,28.6L92.2,65.3l-53.9,0l-7.5-13L57.8,36.5z M113.2,35.7
		l16.6-28.8l33.7,58.4h-50.3L113.2,35.7z M96.1,65.3l13.7-23.8l0,23.8H96.1z M8.6,65.3L27.9,54l6.5,11.3L8.6,65.3z M40.3,68.6
		L40.3,68.6l50,0l0,0h79L129.8,0.2L113.2,29l0-28.7L56.1,33.6L29.1,49.4L21,35.2L0,0v68.6h2.4H40.3z"/>
	<polygon points="279.6,33.7 216.3,33.7 216.3,2 212.9,2 212.9,68.7 216.3,68.7 216.3,37 279.6,37 279.6,68.7 283,68.7 283,2 
		279.6,2 	"/>
	<g>
		<path d="M188.3,67c-11.1,0-17.3-5.6-17.3-15.8h-3.4c0,12,7.7,19.1,20.6,19.1c12.2,0,20.4-7.6,20.4-18.9c0-13.4-13.1-17.4-18-18.9
			l-1.5-0.5c-4.9-1.6-16.5-5.2-16.5-15c0-9.3,8-13.4,15.8-13.4c7.2,0,14.9,5.1,14.9,13.3h3.4c0-10.3-9.5-16.7-18.3-16.7
			c-11.3,0-19.2,6.9-19.2,16.8c0,12.3,13.7,16.6,18.8,18.2l1.5,0.5c4.7,1.4,15.7,4.8,15.7,15.7C205.3,60.9,198.6,67,188.3,67"/>
	</g>
</g>
</svg>
