<?xml version="1.0" encoding="utf-8"?>
<!-- Generator: Adobe Illustrator 27.4.0, SVG Export Plug-In . SVG Version: 6.00 Build 0)  -->
<svg version="1.1" id="레이어_1" xmlns="http://www.w3.org/2000/svg" xmlns:xlink="http://www.w3.org/1999/xlink" x="0px"
	 y="0px" viewBox="0 0 143.8 455.9" style="enable-background:new 0 0 143.8 455.9;" xml:space="preserve">
<g>
	<path d="M16.7,8.5H76c10,0,18.7,1.8,26.1,5.3c7.4,3.5,13,8.6,16.9,15.2c3.9,6.6,5.9,14.4,5.9,23.5c0,7.9-1.5,14.9-4.5,21
		c-3,6.1-7.4,11-13.1,14.8l20,40.1H81.8L67.6,96.5h-9.8v31.8H16.7V8.5z M69.3,66c4.6,0,8.1-1.1,10.5-3.3c2.5-2.2,3.7-5.4,3.7-9.5
		c0-4.2-1.2-7.4-3.7-9.6c-2.5-2.2-6-3.3-10.5-3.3H57.1V66H69.3z"/>
</g>
<path d="M137.4,319.6v33.6l-73.3,35.9v0.5h73.3v26.5H6.4v-29.6l81.7-39.7v-0.7H6.4v-26.5H137.4z"/>
<polygon points="76.8,150.3 82.8,168.8 61.3,168.8 67.1,150.3 28.9,150.3 6.5,210.7 49.2,210.7 54.5,195.9 89.2,195.9 94.5,210.7 
	137.5,210.7 115,150.3 "/>
<path d="M48.1,297.6c-0.3-1.7-0.5-3.6-0.5-5.5c0-7.2,2.3-13.1,6.8-17.7c4.5-4.6,10.3-6.9,17.5-6.9c7.1,0,13,2.3,17.5,6.9
	c4.6,4.6,6.9,10.5,6.9,17.7c0,1.9-0.2,3.8-0.5,5.5h41.6c0.1-1.8,0.2-3.6,0.2-5.5c0-12-2.8-22.7-8.3-32c-5.5-9.4-13.3-16.7-23.2-22
	c-9.9-5.3-21.4-7.9-34.2-7.9c-12.8,0-24.1,2.6-34.1,7.9s-17.7,12.6-23.2,22c-5.5,9.4-8.3,20.1-8.3,32c0,1.9,0.1,3.7,0.2,5.5H48.1z"
	/>
<path d="M28.4,444.5l2.1-1.7c0.6,0.9,1.6,1.5,2.5,1.5c0.9,0,1.4-0.4,1.4-1.1c0-0.5-0.5-0.8-1.4-1.3l-1-0.7c-1.1-0.7-1.8-1.6-1.8-3.1
	c0-2.2,2-3.9,4.5-3.9c1.4,0,2.8,0.7,3.8,1.9l-1.9,1.8c-0.6-0.6-1.2-1.1-2-1.1c-0.9,0-1.3,0.5-1.3,1c0,0.5,0.5,0.7,1.5,1.3l1.1,0.7
	c1.2,0.7,1.6,1.5,1.6,2.9c0,2.2-1.8,4-4.8,4C31.3,446.9,29.6,446.2,28.4,444.5z"/>
<path d="M40.9,434.5h3l-2.4,12.2h-3L40.9,434.5z"/>
<path d="M46.2,434.5h2.9l1.7,5.8l0.6,2.7h0.1c0.1-1.3,0.2-3.1,0.5-4.6l0.8-3.9h2.8l-2.4,12.2h-2.9l-1.7-5.8l-0.6-2.7h-0.1
	c-0.1,1.4-0.2,3.1-0.5,4.6l-0.8,3.9h-2.8L46.2,434.5z"/>
<path d="M56.1,441.7c0-4.3,3-7.5,6.6-7.5c1.4,0,2.6,0.7,3.3,2l-2,1.6c-0.5-0.7-0.9-1-1.5-1c-1.8,0-3.3,2.1-3.3,4.7
	c0,1.8,0.7,2.8,2.3,2.8c0.6,0,1.3-0.4,1.9-0.9l1.2,1.9c-0.7,0.6-2,1.5-3.7,1.5C58,446.9,56.1,445,56.1,441.7z"/>
<path d="M68.2,434.5h7.4l-0.5,2.5h-4.5l-0.4,2.1h3.8l-0.5,2.5h-3.8l-0.5,2.5h4.6l-0.5,2.5h-7.6L68.2,434.5z"/>
<path d="M78.2,444.9c3.5-2.8,6.2-4.8,6.2-6.8c0-0.8-0.5-1.2-1.2-1.2c-0.6,0-1.1,0.4-1.8,0.9L80,436c1.2-1,2.4-1.5,3.6-1.5
	c2.3,0,3.8,1.3,3.8,3.3c0,2.3-1.9,4-4.3,6.3h3.6l-0.5,2.5h-8.2L78.2,444.9z"/>
<path d="M88.1,442.5c0-5.6,2.8-8,5.4-8c1.9,0,3.5,1.3,3.5,4.4c0,5.6-2.8,7.9-5.3,7.9C89.7,446.9,88.1,445.5,88.1,442.5z M94.2,438.6
	c0-1.4-0.4-1.8-0.9-1.8c-1.1,0-2.4,2.5-2.4,6c0,1.4,0.4,1.7,0.9,1.7C92.9,444.6,94.2,442.1,94.2,438.6z"/>
<path d="M96.8,444.9c3.5-2.8,6.2-4.8,6.2-6.8c0-0.8-0.5-1.2-1.2-1.2c-0.6,0-1.1,0.4-1.8,0.9l-1.4-1.7c1.2-1,2.4-1.5,3.6-1.5
	c2.3,0,3.8,1.3,3.8,3.3c0,2.3-1.9,4-4.3,6.3h3.6l-0.5,2.5h-8.2L96.8,444.9z"/>
<path d="M105.6,444.7l1.9-1.5c0.6,0.9,1.6,1.3,2.3,1.3c1.1,0,1.8-0.5,1.8-1.3c0-0.9-0.5-1.5-2.7-1.5l0.4-2.1c2.3,0,2.9-0.7,2.9-1.6
	c0-0.6-0.5-1-1.3-1c-0.5,0-1,0.2-1.7,0.7l-1.4-1.9c1.3-0.9,2.4-1.1,3.7-1.1c2.2,0,3.8,1.2,3.8,2.9c0,1.5-0.6,2.5-2.5,3.1v0.1
	c1.3,0.5,1.8,1.5,1.8,2.5c0,2.4-2.1,3.7-4.7,3.7C108.5,446.9,106.8,446.3,105.6,444.7z"/>
</svg>
