<?xml version="1.0" encoding="utf-8"?>
<!-- Generator: Adobe Illustrator 27.4.0, SVG Export Plug-In . SVG Version: 6.00 Build 0)  -->
<svg version="1.1" id="레이어_1" xmlns="http://www.w3.org/2000/svg" xmlns:xlink="http://www.w3.org/1999/xlink" x="0px"
	 y="0px" viewBox="0 0 453.54 211.89" style="enable-background:new 0 0 453.54 211.89;" xml:space="preserve">
<style type="text/css">
	.st0{fill:#231815;}
</style>
<path class="st0" d="M284.36,17.43l-5.08-16c-0.4-0.88-1.28-1.45-2.25-1.45c-1.83,0-3.55,1.39-5.16,4.19l-6.79,11.76
	c-12.45-0.76-25.25-1.16-38.31-1.16C101.53,14.79,0,51.06,0,95.8c0,38.18,74,70.19,173.5,78.75l-3.83,6.63
	c-1.29,2.26-1.95,4.81-1.93,7.41c-0.07,1.52,0.28,3.02,1,4.36l5.55,17.49c0.45,0.91,1.39,1.48,2.41,1.45c1.72,0,3.39-1.4,5-4.19
	l18.15-31.44c8.83,0.38,17.81,0.57,26.92,0.57c125.24,0,226.77-36.26,226.77-81C453.54,58.17,381.71,26.53,284.36,17.43z
	 M25.19,95.8c0-39.18,93.19-70.93,208.14-70.93c8.9,0,17.66,0.19,26.28,0.56l-2.51,4.34c-8.06-0.2-16.25-0.27-24.55-0.27
	C123,29.5,34.19,59.55,34.19,96.62c0,31.05,62.28,57.17,146.87,64.84l-1.65,2.86C90.6,156.26,25.19,128.61,25.19,95.8z
	 M199.73,54.88h-23.21c-3.73-0.05-7.34,1.33-10.08,3.87c-2.85,2.58-22.61,2.51-26.37,2.51c-2.16,0-14.63,11.47-14.63,14.3
	c0,3.76,29.38-1,28.09,1.19l-36.26,55.51c-0.49,0.89-0.82,1.86-1,2.86C92.64,124.9,78.5,111.7,78.5,96.62
	c0-35.71,78.49-58.8,175.23-61l-67.82,117.39c-21.54-3-40.9-7.44-57.07-13h21.69c2.4-0.11,4.71-0.89,6.69-2.25
	c2.25-1.33,4.11-3.21,5.4-5.48l40.29-69.66c0.69-1.18,1.08-2.51,1.13-3.87C204.07,56.17,202.63,54.88,199.73,54.88z M233.33,166.73
	c-9.33,0-18.54-0.21-27.62-0.63l1.66-2.89c8.25,0.36,16.65,0.54,25.18,0.54c32.87,0,52.79,0,91.15-7.49
	c-6.67,1.3-43.64,1.37-68.25,1.37c-15.11,0-29.79-0.61-43.83-1.77l69.46-120.2c18.68,0.88,40.54,0.84,42.62,1.33
	c-13.16-2.99-26.53-4.96-40-5.89c0.69-1.27,1.22-2.61,1.59-4c48.43,4.24,90,14.27,118.11,27.79h-92.1c-5.16,0-8.49,1.29-10,3.87
	l-6.76,11.6c-0.7,1.18-1.09,2.53-1.13,3.9c0,2.58,1.45,3.87,4.35,3.87h38.69c2.45-0.09,4.83-0.88,6.85-2.26
	c2.24-1.33,4.1-3.22,5.4-5.48c1.37-2.23,3.25-4.11,5.48-5.48c1.98-1.39,4.31-2.19,6.73-2.29c2.9,0,4.35,1.29,4.35,3.87
	c-0.05,1.36-0.44,2.69-1.13,3.87l-4.51,7.74c-1.29,2.27-3.15,4.15-5.4,5.48c-1.98,1.36-4.29,2.14-6.69,2.25h-54.12
	c-2.45,0.1-4.82,0.88-6.85,2.26c-2.25,1.33-4.11,3.21-5.4,5.48l-22.41,38.69c-0.69,1.18-1.08,2.51-1.13,3.87
	c0,2.57,1.51,3.85,4.52,3.86h108.32c5.16,0,8.49-1.29,10-3.86l11.13-19.35c0.69-1.18,1.07-2.51,1.12-3.87
	c0-2.57-1.45-3.87-4.35-3.87h-38.7c-2.45,0.09-4.82,0.86-6.85,2.22c-2.24,1.33-4.1,3.22-5.4,5.48l-4.5,7.78
	c-1.29,2.27-3.15,4.15-5.4,5.48c-2.02,1.38-4.4,2.17-6.85,2.26c-2.9,0-4.35-1.28-4.35-3.83c0.06-1.37,0.5-2.7,1.26-3.84l13.34-23.22
	c1.35-2.24,3.21-4.14,5.43-5.52c1.97-1.4,4.3-2.19,6.71-2.28h54.16c2.43-0.09,4.78-0.87,6.77-2.26c2.23-1.37,4.11-3.25,5.48-5.48
	l11.84-20.57c12.93,9.24,20.18,19.58,20.18,30.5C441.48,134.97,348.29,166.73,233.33,166.73L233.33,166.73z"/>
</svg>
