<?xml version="1.0" encoding="utf-8"?>
<!-- Generator: Adobe Illustrator 27.4.0, SVG Export Plug-In . SVG Version: 6.00 Build 0)  -->
<svg version="1.1" id="레이어_1" xmlns="http://www.w3.org/2000/svg" xmlns:xlink="http://www.w3.org/1999/xlink" x="0px"
	 y="0px" viewBox="0 0 288 144" style="enable-background:new 0 0 288 144;" xml:space="preserve">
<style type="text/css">
	.st0{fill:#231815;}
</style>
<path class="st0" d="M172.83,23.73L170,14.81c-0.22-0.49-0.71-0.81-1.26-0.81c-1.02,0-1.98,0.78-2.88,2.34l-3.79,6.56
	c-6.94-0.42-14.08-0.65-21.37-0.65C70.85,22.26,14.21,42.49,14.21,67.45c0,21.3,41.28,39.15,96.78,43.93l-2.14,3.7
	c-0.72,1.26-1.09,2.68-1.08,4.13c-0.04,0.85,0.16,1.69,0.56,2.43l3.1,9.76c0.25,0.51,0.78,0.83,1.34,0.81
	c0.96,0,1.89-0.78,2.79-2.34l10.12-17.54c4.93,0.21,9.93,0.32,15.02,0.32c69.86,0,126.49-20.23,126.49-45.18
	C267.2,46.46,227.14,28.81,172.83,23.73z M28.27,67.45c0-21.85,51.98-39.57,116.1-39.57c4.96,0,9.85,0.1,14.66,0.31l-1.4,2.42
	c-4.5-0.11-9.06-0.15-13.69-0.15c-61.11,0-110.65,16.76-110.65,37.44c0,17.32,34.74,31.89,81.93,36.17l-0.92,1.6
	C64.75,101.17,28.27,85.75,28.27,67.45z M125.63,44.62h-12.95c-2.08-0.03-4.1,0.74-5.62,2.16c-1.59,1.44-12.61,1.4-14.71,1.4
	c-1.2,0-8.16,6.4-8.16,7.98c0,2.1,16.39-0.56,15.67,0.66L79.63,87.79c-0.27,0.5-0.46,1.04-0.56,1.6C65.89,83.68,58,76.32,58,67.91
	c0-19.92,43.78-32.8,97.74-34.03l-37.83,65.48c-12.02-1.67-22.81-4.15-31.83-7.25h12.1c1.34-0.06,2.63-0.5,3.73-1.26
	c1.25-0.74,2.29-1.79,3.01-3.06l22.47-38.86c0.39-0.66,0.6-1.4,0.63-2.16C128.04,45.34,127.24,44.62,125.63,44.62z M144.37,107.01
	c-5.21,0-10.34-0.12-15.41-0.35l0.93-1.61c4.6,0.2,9.29,0.3,14.05,0.3c18.34,0,29.45,0,50.84-4.18c-3.72,0.73-24.34,0.76-38.07,0.76
	c-8.43,0-16.62-0.34-24.45-0.99L171,33.9c10.42,0.49,22.61,0.47,23.77,0.74c-7.34-1.67-14.8-2.77-22.31-3.29
	c0.38-0.71,0.68-1.46,0.89-2.23c27.01,2.37,50.2,7.96,65.88,15.5h-51.37c-2.88,0-4.74,0.72-5.58,2.16l-3.77,6.47
	c-0.39,0.66-0.61,1.41-0.63,2.18c0,1.44,0.81,2.16,2.43,2.16h21.58c1.37-0.05,2.69-0.49,3.82-1.26c1.25-0.74,2.29-1.8,3.01-3.06
	c0.76-1.25,1.81-2.29,3.06-3.06c1.1-0.78,2.41-1.22,3.75-1.28c1.62,0,2.43,0.72,2.43,2.16c-0.03,0.76-0.25,1.5-0.63,2.16l-2.52,4.32
	c-0.72,1.26-1.76,2.32-3.01,3.06c-1.1,0.76-2.4,1.19-3.73,1.26h-30.19c-1.37,0.05-2.69,0.49-3.82,1.26
	c-1.25,0.74-2.29,1.79-3.01,3.06l-12.5,21.58c-0.38,0.66-0.6,1.4-0.63,2.16c0,1.43,0.84,2.15,2.52,2.15h60.42
	c2.88,0,4.74-0.72,5.58-2.15l6.21-10.79c0.38-0.66,0.6-1.4,0.62-2.16c0-1.43-0.81-2.16-2.43-2.16h-21.59
	c-1.36,0.05-2.69,0.48-3.82,1.24c-1.25,0.74-2.29,1.8-3.01,3.06l-2.51,4.34c-0.72,1.26-1.76,2.32-3.01,3.06
	c-1.13,0.77-2.45,1.21-3.82,1.26c-1.62,0-2.43-0.71-2.43-2.14c0.04-0.76,0.28-1.51,0.7-2.14l7.44-12.95
	c0.75-1.25,1.79-2.31,3.03-3.08c1.1-0.78,2.4-1.22,3.74-1.27h30.21c1.35-0.05,2.66-0.49,3.78-1.26c1.24-0.76,2.29-1.81,3.06-3.06
	l6.6-11.47c7.21,5.15,11.26,10.92,11.26,17.01C260.48,89.3,208.49,107.01,144.37,107.01L144.37,107.01z"/>
</svg>
